HIERARCHY
ROOT Hips
{
	OFFSET 17.832336 103.162056 -8.849480
	CHANNELS 6 Xposition Yposition Zposition Xrotation Yrotation Zrotation
	JOINT Chest
	{
		OFFSET 3.879560 13.074097 0.413914
		CHANNELS 3 Xrotation Yrotation Zrotation
		JOINT Chest2
		{
			OFFSET 6.287624 20.383476 2.011601
			CHANNELS 3 Xrotation Yrotation Zrotation
			JOINT Chest3
			{
				OFFSET 5.525198 13.739426 1.876222
				CHANNELS 3 Xrotation Yrotation Zrotation
				JOINT Neck
				{
					OFFSET 5.296284 16.305756 2.165148
					CHANNELS 3 Xrotation Yrotation Zrotation
					JOINT Head
					{
						OFFSET 0.593822 9.182968 5.014809
						CHANNELS 3 Xrotation Yrotation Zrotation
						End Site
						{
							OFFSET 0.642841 9.206223 4.965860
						}
					}
				}
				JOINT LeftCollar
				{
					OFFSET 5.884518 11.306549 6.272061
					CHANNELS 3 Xrotation Yrotation Zrotation
					JOINT LeftUpArm
					{
						OFFSET 15.336712 -8.529938 -0.724448
						CHANNELS 3 Xrotation Yrotation Zrotation
						JOINT LeftLowArm
						{
							OFFSET 18.588676 -27.909340 -3.906148
							CHANNELS 3 Xrotation Yrotation Zrotation
							JOINT LeftHand
							{
								OFFSET 10.016426 -25.119804 13.023575
								CHANNELS 3 Xrotation Yrotation Zrotation
								End Site
								{
									OFFSET 2.189178 -5.490067 2.846379
								}
							}
						}
					}
				}
				JOINT RightCollar
				{
					OFFSET -0.791950 14.050064 1.943446
					CHANNELS 3 Xrotation Yrotation Zrotation
					JOINT RightUpArm
					{
						OFFSET -6.767172 -1.982010 -16.086433
						CHANNELS 3 Xrotation Yrotation Zrotation
						JOINT RightLowArm
						{
							OFFSET -2.657940 -27.603485 -19.254025
							CHANNELS 3 Xrotation Yrotation Zrotation
							JOINT RightHand
							{
								OFFSET 20.987364 -12.611885 17.361628
								CHANNELS 3 Xrotation Yrotation Zrotation
								End Site
								{
									OFFSET 4.586998 -2.756454 3.794552
								}
							}
						}
					}
				}
			}
		}
	}
	JOINT LeftUpLeg
	{
		OFFSET 6.018383 -2.031464 7.750570
		CHANNELS 3 Xrotation Yrotation Zrotation
		JOINT LeftLowLeg
		{
			OFFSET -25.628782 -35.944420 17.180019
			CHANNELS 3 Xrotation Yrotation Zrotation
			JOINT LeftFoot
			{
				OFFSET -17.026293 -41.067924 4.908968
				CHANNELS 3 Xrotation Yrotation Zrotation
				JOINT LeftToe
				{
					OFFSET -11.938536 -15.986013 12.707397
					CHANNELS 3 Xrotation Yrotation Zrotation
					End Site
					{
						OFFSET -11.753958 -2.035288 20.426968
					}
				}
			}
		}
	}
	JOINT RightUpLeg
	{
		OFFSET -6.018443 2.031281 -7.750580
		CHANNELS 3 Xrotation Yrotation Zrotation
		JOINT RightLowLeg
		{
			OFFSET -5.293391 -46.926395 -3.728930
			CHANNELS 3 Xrotation Yrotation Zrotation
			JOINT RightFoot
			{
				OFFSET 24.601673 -35.875847 -10.404856
				CHANNELS 3 Xrotation Yrotation Zrotation
				JOINT RightToe
				{
					OFFSET -17.123810 -15.768988 4.203690
					CHANNELS 3 Xrotation Yrotation Zrotation
					End Site
					{
						OFFSET -23.332920 -1.089931 3.734024
					}
				}
			}
		}
	}
}
MOTION
Frames: 13
Frame Time: 0.033333
-4.506033 105.488029 -1.111714 7.219057 50.120850 18.086573 -7.305442 1.783052 0.834958 -5.787674 -0.117299 0.601290 1.007243 -14.042956 -5.356516 -19.438957 7.070079 -8.072894 0.000002 0.000002 0.000001 4.694889 -10.565165 -9.792304 -16.970764 -15.600103 -38.266750 13.248395 1.436553 0.270860 0.000002 0.000005 0.000001 1.889242 8.402228 7.432650 -6.939450 37.891704 -10.901844 52.552131 -5.839619 -86.133118 -0.000003 -0.000001 -0.000004 15.354236 -1.571565 15.927907 -3.760526 4.018431 -3.996164 -32.220707 -8.328425 -26.356074 -0.000000 0.000003 0.000001 -3.321806 3.097121 -12.878790 -3.616955 0.436063 -30.199244 1.608233 16.268015 25.443145 0.000001 -0.000002 0.000001 
-4.501030 105.489746 -1.116689 6.939810 50.017704 18.108855 -7.312049 1.770572 0.878888 -5.859360 0.109927 0.231831 1.375134 -14.023372 -4.833849 -19.639560 7.105854 -8.103495 -0.000001 0.000002 0.000001 4.892555 -10.033668 -9.818895 -17.415729 -15.914933 -38.426088 13.376143 1.280997 0.171944 0.000001 0.000003 -0.000004 2.031701 8.468845 7.436964 -7.034542 38.203389 -10.815940 53.007906 -5.763101 -86.106897 -0.000006 -0.000002 -0.000000 15.328167 -1.611381 15.803412 -3.561760 3.902571 -3.645819 -32.321534 -7.840383 -26.322355 -0.000001 0.000001 0.000001 -3.391774 3.155802 -13.000501 -3.238231 0.412388 -29.786670 1.358288 16.352952 25.137729 0.000001 -0.000001 -0.000001 
-4.487490 105.495354 -1.118301 5.197713 49.118134 18.402930 -5.508950 0.921173 2.600923 -7.541879 1.702876 -2.489598 2.788885 -14.844834 -2.718216 -19.201129 7.524010 -8.237833 -0.000002 0.000003 0.000000 5.551367 -8.102100 -9.929159 -17.215545 -16.200474 -38.344665 13.697352 0.978430 -0.121050 -0.000003 0.000003 -0.000002 2.521159 9.226625 7.742081 -6.947314 39.244027 -11.002332 53.868155 -5.658036 -85.901773 -0.000002 0.000004 0.000001 16.433439 -1.615007 16.858758 -3.202351 3.708705 -3.339163 -32.838679 -6.701979 -26.441361 -0.000001 0.000002 0.000002 -2.516121 2.810965 -12.303404 -2.935934 0.450658 -29.546825 0.610884 17.187958 25.334997 0.000001 -0.000003 -0.000000 
-4.473770 105.502106 -1.127375 6.732252 49.772429 17.989088 -6.591141 1.405948 1.600321 -6.315684 0.632722 -0.626118 1.281788 -14.938170 -4.316676 -19.544334 7.766022 -8.418849 0.000001 0.000002 0.000001 5.310835 -9.144047 -9.806785 -17.312337 -16.067696 -38.652549 13.190725 0.965490 0.739737 0.000001 -0.000002 -0.000000 3.184660 10.800813 7.956708 -7.233924 39.036037 -10.756254 54.509513 -6.101328 -86.446378 0.000001 0.000003 0.000003 15.618325 -1.555886 16.168417 -3.271569 3.904988 -3.397818 -32.828741 -7.635967 -26.646006 -0.000000 0.000002 0.000000 -3.638042 3.284031 -13.369861 -2.463154 0.255352 -28.859513 0.566566 17.023560 24.756991 0.000001 -0.000002 0.000000 
-4.450089 105.514145 -1.134287 7.198622 50.126973 17.680518 -7.028936 1.596140 1.274695 -6.026818 0.178551 0.162331 0.851622 -15.446220 -4.863761 -19.706481 8.161089 -8.574458 -0.000001 0.000002 0.000001 5.368105 -8.730919 -9.774860 -17.248354 -15.998950 -38.739750 13.462564 1.119248 0.645627 -0.000000 0.000006 -0.000001 3.861791 12.019840 7.927879 -7.534715 39.135297 -10.616705 54.828555 -6.492787 -86.796944 -0.000005 0.000000 -0.000002 15.321847 -1.531038 15.970937 -3.334901 3.926891 -3.340441 -32.590640 -7.799901 -26.483944 0.000000 0.000007 0.000001 -3.988774 3.430138 -13.533888 -2.374808 0.280370 -28.748225 0.715971 16.713166 24.531806 -0.000000 -0.000005 0.000001 
-4.416590 105.526222 -1.141129 5.759077 49.199246 17.820179 -5.422191 0.857966 2.751211 -7.097505 1.197009 -1.585571 1.692310 -15.152373 -3.602287 -19.541152 7.888109 -8.383845 -0.000002 0.000002 0.000002 5.806955 -7.546965 -9.841113 -17.195848 -16.160422 -38.591771 13.053478 0.519974 -0.049352 0.000000 -0.000003 0.000001 3.338315 10.977667 8.071234 -7.144773 39.153653 -10.690217 54.376779 -6.625358 -87.322630 -0.000003 0.000000 0.000002 16.069278 -1.527166 16.693640 -2.899915 3.669688 -2.899849 -33.228833 -6.522342 -26.595869 0.000000 0.000003 0.000001 -3.273485 3.113149 -12.874674 -2.155932 0.225482 -28.651257 0.583684 17.246808 24.977720 -0.000000 0.000000 -0.000000 
-4.372011 105.540840 -1.149991 5.438711 48.731603 17.852236 -5.120164 0.749507 2.840790 -7.301662 1.619740 -2.288855 2.123367 -14.610425 -2.915892 -19.714866 7.537915 -8.213287 -0.000000 0.000002 0.000000 5.770275 -7.429159 -9.691736 -17.328965 -16.146526 -38.746775 13.196711 0.597306 -0.280289 -0.000004 -0.000001 -0.000004 3.113178 10.057039 7.740970 -7.278904 38.624836 -10.412243 53.947532 -6.300677 -86.743778 -0.000006 0.000003 0.000003 16.414073 -1.487030 17.052438 -3.013900 3.672360 -3.271728 -33.353945 -6.267621 -26.601539 -0.000000 0.000005 0.000004 -2.951904 2.951823 -12.599137 -2.338324 0.256456 -29.047220 0.179608 17.910689 25.542688 0.000001 -0.000003 0.000001 
-4.320641 105.551819 -1.156261 5.156984 48.716297 17.880713 -4.539067 0.476136 3.454786 -8.178081 2.232952 -3.346284 2.886670 -14.819610 -2.231905 -19.565470 7.313632 -8.118030 -0.000001 0.000001 -0.000000 5.819296 -7.470046 -9.573246 -17.517186 -16.324907 -38.783023 13.241783 0.291987 -0.451282 -0.000000 0.000001 -0.000000 2.802409 9.246615 7.717363 -7.103260 38.863449 -10.592373 53.880658 -5.831470 -86.489784 -0.000001 0.000004 0.000004 16.821991 -1.459801 17.293600 -3.102410 3.737957 -3.338165 -33.484914 -6.259367 -26.700063 -0.000000 0.000007 -0.000000 -2.824046 2.856606 -12.604201 -1.990458 0.191408 -28.730538 0.039350 18.098005 25.372807 0.000001 0.000000 -0.000001 
-4.254082 105.561920 -1.156631 5.300283 48.607683 17.719401 -4.695967 0.541585 3.220482 -8.087580 2.157751 -3.155783 2.849952 -14.753040 -2.212911 -19.483442 7.108795 -7.893606 0.000002 0.000002 -0.000000 5.804568 -7.515951 -9.332006 -17.822711 -16.700448 -39.136260 13.581395 0.146933 -0.360232 -0.000001 0.000003 0.000001 2.944983 9.225049 7.731066 -7.141905 38.811365 -10.291923 54.069089 -5.892906 -86.965179 -0.000004 -0.000003 0.000002 16.709059 -1.546969 17.162401 -2.899693 3.570696 -3.021839 -33.571718 -5.798217 -26.650177 -0.000002 -0.000003 -0.000003 -2.926230 2.967104 -12.741666 -1.640634 0.262248 -28.400594 -0.022229 18.153881 25.701312 0.000001 -0.000001 0.000000 
-4.164015 105.574463 -1.154915 5.566384 48.542885 17.562090 -4.760767 0.559020 3.266663 -8.364805 2.171478 -3.201628 3.028963 -15.266175 -2.160328 -19.227570 7.137679 -7.833568 0.000001 0.000000 0.000000 6.032989 -6.758366 -9.580087 -18.188597 -16.899228 -39.126896 14.040705 0.371701 -0.560012 0.000000 -0.000001 -0.000004 3.074685 9.647920 7.877035 -6.968432 38.705169 -10.334226 54.286702 -5.940427 -86.941806 -0.000006 -0.000001 0.000003 16.752004 -1.628605 17.106509 -2.804406 3.466103 -2.736327 -33.484705 -5.644711 -26.563345 0.000001 -0.000001 0.000001 -3.045776 3.130152 -13.113181 -1.465946 0.392457 -27.828282 -0.032656 17.961640 25.566969 -0.000000 -0.000000 0.000001 
-4.074020 105.584175 -1.154468 5.743192 48.370799 17.397740 -4.532201 0.447195 3.640812 -8.574810 2.281994 -3.444844 3.173471 -15.054218 -2.024667 -19.482995 6.951403 -7.949066 0.000002 0.000001 -0.000001 5.498161 -8.819047 -9.436250 -17.629688 -16.437636 -38.983766 13.088181 0.305130 0.038110 -0.000001 0.000004 -0.000000 2.962321 9.757478 7.916632 -6.938036 38.568699 -10.541847 54.393946 -6.103667 -86.908953 -0.000000 0.000004 0.000001 16.824358 -1.561480 17.193034 -2.873602 3.629278 -3.028026 -33.402077 -5.784798 -26.530335 -0.000002 0.000001 0.000001 -3.216629 3.140900 -13.323436 -1.067707 0.307176 -27.467934 -0.653172 18.392699 25.044845 -0.000000 -0.000001 0.000000 
-3.967638 105.594856 -1.148216 5.667370 48.310474 16.971258 -4.299709 0.292005 4.185965 -8.808303 2.422918 -3.676547 3.447998 -14.825641 -1.754889 -19.771987 6.870229 -7.938753 -0.000000 -0.000001 -0.000000 5.358359 -9.625504 -9.216317 -17.854613 -16.630840 -39.278984 13.413562 0.536501 0.437475 0.000003 0.000002 -0.000000 2.538726 9.248616 8.217179 -6.418555 38.502272 -10.639264 54.679421 -6.295543 -87.361541 -0.000002 0.000004 0.000004 16.924379 -1.414172 17.559018 -2.765109 3.540857 -2.959147 -33.534419 -5.719115 -26.616602 -0.000000 0.000005 -0.000000 -3.330424 3.147551 -13.113242 -0.992040 0.305235 -27.564069 -0.430493 18.475986 25.565034 -0.000000 -0.000000 0.000001 
-3.840950 105.604973 -1.143277 5.887402 48.489091 16.522557 -4.673943 0.427078 4.058788 -8.844532 2.158678 -3.279795 3.344128 -15.215361 -2.068336 -19.359702 6.469086 -7.750169 -0.000003 0.000000 0.000000 5.182149 -9.246794 -9.251479 -17.988833 -16.346123 -39.387109 13.617313 1.030379 0.192499 -0.000001 0.000009 -0.000000 2.484663 9.159269 7.928852 -6.789672 37.860695 -10.365193 54.988224 -6.613191 -86.816390 0.000001 0.000000 0.000002 17.072275 -1.403223 17.859106 -2.883476 3.706555 -3.007855 -33.433916 -5.946836 -26.593161 -0.000000 0.000003 0.000001 -3.447342 3.233441 -13.092270 -0.802426 0.249955 -27.226633 -0.215977 18.345371 25.808505 0.000001 -0.000003 0.000001 
